<svg width="24" height="21" viewBox="0 0 24 21" fill="none" xmlns="http://www.w3.org/2000/svg">
<path d="M12.0005 20.5822C11.9047 20.5821 11.8102 20.5593 11.7248 20.5157C11.6603 20.4833 10.1237 19.6963 8.11627 18.2363C6.26376 16.8865 3.64777 14.6857 1.71863 11.8544C1.43596 11.4409 1.1813 11.009 0.956374 10.5615C0.910063 10.4687 0.888212 10.3657 0.892895 10.2622C0.897579 10.1587 0.928641 10.058 0.983134 9.9699C1.03761 9.88166 1.11373 9.80882 1.20428 9.7583C1.29483 9.70777 1.3968 9.68124 1.50049 9.68121H5.41231L6.40364 8.26213C6.4634 8.17644 6.54423 8.1076 6.63833 8.06222C6.73243 8.01685 6.83664 7.99648 6.9409 8.00308C7.04515 8.00968 7.14596 8.04303 7.23358 8.09991C7.32121 8.15678 7.39271 8.23527 7.44119 8.32781L8.63079 10.5983L10.6321 6.31271C10.6858 6.19722 10.7743 6.10149 10.8853 6.03902C10.9963 5.97654 11.124 5.95048 11.2506 5.9645C11.3772 5.97852 11.4962 6.03191 11.5908 6.11715C11.6854 6.20239 11.7508 6.31518 11.7779 6.43961L13.0267 12.1241L14.788 8.35335C14.8359 8.25062 14.9116 8.16332 15.0065 8.10132C15.1014 8.03932 15.2118 8.00508 15.3251 8.00247C15.4385 7.99985 15.5503 8.02897 15.648 8.08653C15.7456 8.14409 15.8253 8.2278 15.8779 8.32821L17.1733 10.8015L17.773 9.94192C17.829 9.86166 17.9036 9.79611 17.9905 9.75087C18.0773 9.70562 18.1738 9.682 18.2717 9.68202H22.117C23.2762 7.09888 22.9157 4.52668 21.1248 2.74431C19.0785 0.706908 15.7489 0.706908 13.7022 2.74431C13.3551 3.08976 12.9181 3.49886 12.4554 3.93229L12.4169 3.96797C12.3042 4.07343 12.1557 4.13211 12.0013 4.13211C11.847 4.13211 11.6984 4.07343 11.5857 3.96797L11.5452 3.93026C11.0826 3.49521 10.6463 3.08976 10.2996 2.74309C8.25332 0.706097 4.92333 0.706097 2.87701 2.74309C1.52279 4.09082 0.971376 5.91455 1.31925 7.87735C1.34757 8.03612 1.31166 8.19964 1.21943 8.33194C1.12721 8.46424 0.986203 8.55449 0.82744 8.58284C0.748796 8.59686 0.668161 8.59524 0.590141 8.57809C0.512121 8.56094 0.438244 8.52858 0.372731 8.48287C0.307217 8.43716 0.25135 8.379 0.208321 8.31169C0.165291 8.24439 0.135943 8.16927 0.121951 8.09062C-0.0868577 6.91926 -0.027256 5.78359 0.298728 4.71522C0.627653 3.64228 1.21877 2.66823 2.01866 1.8811C4.53855 -0.627034 8.63809 -0.627034 11.158 1.8811C11.3976 2.11991 11.6875 2.39522 12.0005 2.68958C12.3135 2.39522 12.6034 2.12194 12.8435 1.8811C15.3629 -0.627034 19.4629 -0.627034 21.9824 1.8811C23.065 2.94706 23.7565 4.34697 23.9452 5.85454C24.1361 7.37337 23.8235 9.00046 23.0447 10.5606C22.993 10.6641 22.9128 10.7507 22.8136 10.8102C22.7145 10.8698 22.6004 10.8998 22.4847 10.8968H18.5895L17.5978 12.3158C17.5383 12.4018 17.4576 12.471 17.3636 12.5168C17.2695 12.5625 17.1653 12.5832 17.0609 12.5769C16.9565 12.5706 16.8555 12.5374 16.7677 12.4807C16.6799 12.424 16.6081 12.3455 16.5594 12.253L15.3698 9.98246L13.3685 14.2661C13.3146 14.3811 13.2261 14.4764 13.1153 14.5385C13.0045 14.6006 12.877 14.6265 12.7508 14.6125C12.6245 14.5985 12.5058 14.5453 12.4113 14.4604C12.3169 14.3756 12.2513 14.2632 12.2239 14.1392L10.9751 8.45472L9.21384 12.2254C9.16586 12.3281 9.09018 12.4153 8.99531 12.4772C8.90044 12.5391 8.79017 12.5733 8.67691 12.5759C8.56365 12.5785 8.45191 12.5495 8.35429 12.492C8.25667 12.4345 8.17704 12.3509 8.12438 12.2506L6.82896 9.77731L6.22848 10.6365C6.17245 10.7167 6.0979 10.7822 6.01115 10.8274C5.9244 10.8727 5.82802 10.8963 5.73018 10.8964H2.54453C2.60251 10.9876 2.66252 11.078 2.72375 11.168C4.5495 13.8472 7.04345 15.9479 8.81406 17.2401C9.83326 17.9863 10.8973 18.6693 12.0001 19.2852C13.1115 18.6717 17.346 16.1851 20.4096 12.3446C20.4587 12.2803 20.5202 12.2264 20.5904 12.1861C20.6606 12.1458 20.7382 12.1199 20.8186 12.11C20.8989 12.1001 20.9804 12.1063 21.0583 12.1283C21.1362 12.1503 21.209 12.1876 21.2723 12.2381C21.3356 12.2886 21.3881 12.3512 21.4269 12.4223C21.4657 12.4933 21.4899 12.5714 21.4981 12.6519C21.5063 12.7325 21.4984 12.8139 21.4747 12.8913C21.4511 12.9687 21.4122 13.0406 21.3604 13.1028C19.4215 15.5356 17.0585 17.4181 15.4177 18.5708C13.6398 19.8196 12.3314 20.4898 12.2762 20.517C12.1907 20.5601 12.0963 20.5825 12.0005 20.5822Z" fill="#1376FF"/>
</svg>
